<svg xmlns="http://www.w3.org/2000/svg" xmlns:xlink="http://www.w3.org/1999/xlink" xmlns:lucid="lucid" width="1180" height="520"><g transform="translate(-280 -220)" lucid:page-tab-id="0_0"><path d="M0 0h1870.4v1323.2H0z" fill="#fff"/><path d="M300 480h240v60H300z" fill="none"/><use xlink:href="#a" transform="matrix(1,0,0,1,300,480) translate(112.5925925925926 35.333333333333336)"/><path d="M920 600h240v60H920z" fill="none"/><use xlink:href="#b" transform="matrix(1,0,0,1,920,600) translate(112.5925925925926 35.333333333333336)"/><path d="M820 460h240v60H820z" fill="none"/><use xlink:href="#c" transform="matrix(1,0,0,1,820,460) translate(112.5925925925926 35.333333333333336)"/><path d="M1140 300h240v60h-240z" fill="none"/><use xlink:href="#d" transform="matrix(1,0,0,1,1140,300) translate(112.5925925925926 35.333333333333336)"/><path d="M500 300h240v60H500z" fill="none"/><use xlink:href="#e" transform="matrix(1,0,0,1,500,300) translate(112.5925925925926 35.333333333333336)"/><path d="M500 440h240v60H500z" fill="none"/><use xlink:href="#e" transform="matrix(1,0,0,1,500,440) translate(112.5925925925926 35.333333333333336)"/><path d="M480 360c0 22.1-17.9 40-40 40s-40-17.9-40-40 17.9-40 40-40 40 17.9 40 40z" stroke="#c92d39" stroke-width="2" fill="#fff"/><use xlink:href="#f" transform="matrix(1,0,0,1,405,325) translate(17.227222222222224 42.66666666666667)"/><path d="M480 640c0 22.1-17.9 40-40 40s-40-17.9-40-40 17.9-40 40-40 40 17.9 40 40z" stroke="#c92d39" stroke-width="2" fill="#fff"/><use xlink:href="#g" transform="matrix(1,0,0,1,405,605) translate(17.227222222222224 42.66666666666667)"/><path d="M880 360c0 22.1-17.9 40-40 40s-40-17.9-40-40 17.9-40 40-40 40 17.9 40 40z" stroke="#c92d39" stroke-width="2" fill="#fff"/><use xlink:href="#h" transform="matrix(1,0,0,1,805,325) translate(15.819814814814814 42.66666666666667)"/><path d="M1200 680c0 22.1-17.9 40-40 40s-40-17.9-40-40 17.9-40 40-40 40 17.9 40 40z" stroke="#c92d39" stroke-width="2" fill="#fff"/><use xlink:href="#i" transform="matrix(1,0,0,1,1125,645) translate(17.227222222222224 42.66666666666667)"/><path d="M800 600c0 22.1-17.9 40-40 40s-40-17.9-40-40 17.9-40 40-40 40 17.9 40 40z" stroke="#c92d39" stroke-width="2" fill="#fff"/><use xlink:href="#j" transform="matrix(1,0,0,1,725,565) translate(15.819814814814814 42.66666666666667)"/><path d="M1200 440c0 22.1-17.9 40-40 40s-40-17.9-40-40 17.9-40 40-40 40 17.9 40 40z" stroke="#c92d39" stroke-width="2" fill="#fff"/><use xlink:href="#k" transform="matrix(1,0,0,1,1125,405) translate(18.782777777777774 42.66666666666667)"/><path d="M1440 280c0 22.1-17.9 40-40 40s-40-17.9-40-40 17.9-40 40-40 40 17.9 40 40z" stroke="#c92d39" stroke-width="2" fill="#fff"/><use xlink:href="#l" transform="matrix(1,0,0,1,1365,245) translate(14.264259259259257 42.66666666666667)"/><path d="M482 360h316" stroke="#c92d39" stroke-width="2" fill="none"/><path d="M482.03 361h-1.1l.07-1-.03-1h1.06zM799 360l.03 1h-1.06v-2h1.1z" fill="#c92d39"/><path d="M440 402v196" stroke="#c92d39" stroke-width="2" fill="none"/><path d="M440 401l1-.03v1.06h-2v-1.1zM441 599.06l-1-.06-1 .03v-1.06h2z" fill="#c92d39"/><path d="M467.15 392l261.32 180.35" stroke="#c92d39" stroke-width="2" fill="none"/><path d="M467.74 391.18l-1.13 1.65-1.1-.77.77-.57.8-.78zM729.93 572.14l-1.28 1.55-.77-.54 1.13-1.65z" fill="#c92d39"/><path d="M1123.4 659.57l-321.42-59.4" stroke="#c92d39" stroke-width="2" fill="none"/><path d="M1124.96 658.84l-.97 1.53-.15.3-.66-.12.36-1.97zM802.2 599.2l-.37 1.97-.9-.16.07-1-.04-1.02z" fill="#c92d39"/><path d="M798.93 584.43l322.14-128.86" stroke="#c92d39" stroke-width="2" fill="none"/><path d="M799.33 585.35l-.95.38-.75-1.86.96-.38zM1122.37 456.13l-.96.38-.73-1.85.95-.38z" fill="#c92d39"/><path d="M1192.38 413.27l165.84-132.65" stroke="#c92d39" stroke-width="2" fill="none"/><path d="M1193.03 414.03l-.83.67-.7-.97-.57-.58.85-.68zM1359 280l.04 1.25-.22.17-1.25-1.56 1.5-1.2z" fill="#c92d39"/><defs><path d="M101-251c82-7 93 87 43 132L82-64C71-53 59-42 53-27h129V0H18c2-99 128-94 128-182 0-28-16-43-45-43s-46 15-49 41l-32-3c6-41 34-60 81-64" id="m"/><use transform="matrix(0.07407407407407408,0,0,0.07407407407407408,0,0)" xlink:href="#m" id="a"/><path d="M27 0v-27h64v-190l-56 39v-29l58-41h29v221h61V0H27" id="n"/><use transform="matrix(0.07407407407407408,0,0,0.07407407407407408,0,0)" xlink:href="#n" id="b"/><path d="M110-160c48 1 74 30 74 79 0 53-28 85-80 85-65 0-83-55-86-122-5-90 50-162 133-122 14 7 22 21 27 39l-31 6c-5-40-67-38-82-6-9 19-15 44-15 74 11-20 30-34 60-33zm-7 138c34 0 49-23 49-58s-16-56-50-56c-29 0-50 16-49 49 1 36 15 65 50 65" id="o"/><use transform="matrix(0.07407407407407408,0,0,0.07407407407407408,0,0)" xlink:href="#o" id="c"/><path d="M99-251c64 0 84 50 84 122C183-37 130 33 47-8c-14-7-20-23-25-40l30-5c6 39 69 39 84 7 9-19 16-44 16-74-10 22-31 35-62 35-49 0-73-33-73-83 0-54 28-83 82-83zm-1 141c31-1 51-18 51-49 0-36-14-67-51-67-34 0-49 23-49 58 0 34 15 58 49 58" id="p"/><use transform="matrix(0.07407407407407408,0,0,0.07407407407407408,0,0)" xlink:href="#p" id="d"/><path d="M126-127c33 6 58 20 58 59 0 88-139 92-164 29-3-8-5-16-6-25l32-3c6 27 21 44 54 44 32 0 52-15 52-46 0-38-36-46-79-43v-28c39 1 72-4 72-42 0-27-17-43-46-43-28 0-47 15-49 41l-32-3c6-42 35-63 81-64 48-1 79 21 79 65 0 36-21 52-52 59" id="q"/><use transform="matrix(0.07407407407407408,0,0,0.07407407407407408,0,0)" xlink:href="#q" id="e"/><path d="M205 0l-28-72H64L36 0H1l101-248h38L239 0h-34zm-38-99l-47-123c-12 45-31 82-46 123h93" id="r"/><use transform="matrix(0.14814814814814817,0,0,0.14814814814814817,0,0)" xlink:href="#r" id="f"/><path d="M160-131c35 5 61 23 61 61C221 17 115-2 30 0v-248c76 3 177-17 177 60 0 33-19 50-47 57zm-97-11c50-1 110 9 110-42 0-47-63-36-110-37v79zm0 115c55-2 124 14 124-45 0-56-70-42-124-44v89" id="s"/><use transform="matrix(0.14814814814814817,0,0,0.14814814814814817,0,0)" xlink:href="#s" id="g"/><path d="M30-248c118-7 216 8 213 122C240-48 200 0 122 0H30v-248zM63-27c89 8 146-16 146-99s-60-101-146-95v194" id="t"/><use transform="matrix(0.14814814814814817,0,0,0.14814814814814817,0,0)" xlink:href="#t" id="h"/><path d="M30 0v-248h187v28H63v79h144v27H63v87h162V0H30" id="u"/><use transform="matrix(0.14814814814814817,0,0,0.14814814814814817,0,0)" xlink:href="#u" id="i"/><path d="M212-179c-10-28-35-45-73-45-59 0-87 40-87 99 0 60 29 101 89 101 43 0 62-24 78-52l27 14C228-24 195 4 139 4 59 4 22-46 18-125c-6-104 99-153 187-111 19 9 31 26 39 46" id="v"/><use transform="matrix(0.14814814814814817,0,0,0.14814814814814817,0,0)" xlink:href="#v" id="j"/><path d="M63-220v92h138v28H63V0H30v-248h175v28H63" id="w"/><use transform="matrix(0.14814814814814817,0,0,0.14814814814814817,0,0)" xlink:href="#w" id="k"/><path d="M143 4C61 4 22-44 18-125c-5-107 100-154 193-111 17 8 29 25 37 43l-32 9c-13-25-37-40-76-40-61 0-88 39-88 99 0 61 29 100 91 101 35 0 62-11 79-27v-45h-74v-28h105v86C228-13 192 4 143 4" id="x"/><use transform="matrix(0.14814814814814817,0,0,0.14814814814814817,0,0)" xlink:href="#x" id="l"/></defs></g></svg>