<svg xmlns="http://www.w3.org/2000/svg" xmlns:xlink="http://www.w3.org/1999/xlink" xmlns:lucid="lucid" width="1180" height="618"><g transform="translate(-280 -220)" lucid:page-tab-id="0_0"><path d="M0 0h1870.4v1323.2H0z" fill="#fff"/><path d="M644.67 758H1100v60H644.67z" fill="none"/><use xlink:href="#a" transform="matrix(1,0,0,1,644.6666666666666,758) translate(106.14814814814812 36.22222222222222)"/><use xlink:href="#b" transform="matrix(1,0,0,1,644.6666666666666,758) translate(207.34567901234567 36.22222222222222)"/><use xlink:href="#c" transform="matrix(1,0,0,1,644.6666666666666,758) translate(234.1358024691358 36.22222222222222)"/><use xlink:href="#d" transform="matrix(1,0,0,1,644.6666666666666,758) translate(280.8024691358024 36.22222222222222)"/><use xlink:href="#e" transform="matrix(1,0,0,1,644.6666666666666,758) translate(318.82716049382714 36.22222222222222)"/><path d="M300 480h240v60H300z" fill="none"/><use xlink:href="#f" transform="matrix(1,0,0,1,300,480) translate(112.5925925925926 35.333333333333336)"/><path d="M460 580h240v60H460z" fill="none"/><use xlink:href="#g" transform="matrix(1,0,0,1,460,580) translate(112.5925925925926 35.333333333333336)"/><path d="M700 660h240v60H700z" fill="none"/><use xlink:href="#h" transform="matrix(1,0,0,1,700,660) translate(112.5925925925926 35.333333333333336)"/><path d="M920 600h240v60H920z" fill="none"/><use xlink:href="#i" transform="matrix(1,0,0,1,920,600) translate(112.5925925925926 35.333333333333336)"/><path d="M1060 540h240v60h-240z" fill="none"/><use xlink:href="#j" transform="matrix(1,0,0,1,1060,540) translate(112.5925925925926 35.333333333333336)"/><path d="M820 460h240v60H820z" fill="none"/><use xlink:href="#k" transform="matrix(1,0,0,1,820,460) translate(112.5925925925926 35.333333333333336)"/><path d="M1140 300h240v60h-240z" fill="none"/><use xlink:href="#l" transform="matrix(1,0,0,1,1140,300) translate(112.5925925925926 35.333333333333336)"/><path d="M500 300h240v60H500z" fill="none"/><use xlink:href="#h" transform="matrix(1,0,0,1,500,300) translate(112.5925925925926 35.333333333333336)"/><path d="M660 440h240v60H660z" fill="none"/><use xlink:href="#m" transform="matrix(1,0,0,1,660,440) translate(112.5925925925926 35.333333333333336)"/><path d="M890 330h240v60H890z" fill="none"/><use xlink:href="#n" transform="matrix(1,0,0,1,890,330) translate(112.5925925925926 35.333333333333336)"/><path d="M500 440h240v60H500z" fill="none"/><use xlink:href="#h" transform="matrix(1,0,0,1,500,440) translate(112.5925925925926 35.333333333333336)"/><path d="M480 360c0 22.1-17.9 40-40 40s-40-17.9-40-40 17.9-40 40-40 40 17.9 40 40z" stroke="#c92d39" stroke-width="2" fill="#fff"/><use xlink:href="#o" transform="matrix(1,0,0,1,405,325) translate(17.227222222222224 42.66666666666667)"/><path d="M480 640c0 22.1-17.9 40-40 40s-40-17.9-40-40 17.9-40 40-40 40 17.9 40 40z" stroke="#c92d39" stroke-width="2" fill="#fff"/><use xlink:href="#p" transform="matrix(1,0,0,1,405,605) translate(17.227222222222224 42.66666666666667)"/><path d="M880 360c0 22.1-17.9 40-40 40s-40-17.9-40-40 17.9-40 40-40 40 17.9 40 40z" stroke="#000" stroke-width="2" fill="#fff"/><use xlink:href="#q" transform="matrix(1,0,0,1,805,325) translate(15.819814814814814 42.66666666666667)"/><path d="M1200 680c0 22.1-17.9 40-40 40s-40-17.9-40-40 17.9-40 40-40 40 17.9 40 40z" stroke="#000" stroke-width="2" fill="#fff"/><use xlink:href="#r" transform="matrix(1,0,0,1,1125,645) translate(17.227222222222224 42.66666666666667)"/><path d="M800 600c0 22.1-17.9 40-40 40s-40-17.9-40-40 17.9-40 40-40 40 17.9 40 40z" stroke="#c92d39" stroke-width="2" fill="#fff"/><use xlink:href="#s" transform="matrix(1,0,0,1,725,565) translate(15.819814814814814 42.66666666666667)"/><path d="M1200 440c0 22.1-17.9 40-40 40s-40-17.9-40-40 17.9-40 40-40 40 17.9 40 40z" stroke="#000" stroke-width="2" fill="#fff"/><use xlink:href="#t" transform="matrix(1,0,0,1,1125,405) translate(18.782777777777774 42.66666666666667)"/><path d="M1440 280c0 22.1-17.9 40-40 40s-40-17.9-40-40 17.9-40 40-40 40 17.9 40 40z" stroke="#000" stroke-width="2" fill="#fff"/><use xlink:href="#u" transform="matrix(1,0,0,1,1365,245) translate(14.264259259259257 42.66666666666667)"/><path d="M482 360h316" stroke="#000" stroke-width="2" fill="none"/><path d="M482.03 361h-1.1l.07-1-.03-1h1.06zM799 360l.03 1h-1.06v-2h1.1z"/><path d="M440 402v196" stroke="#c92d39" stroke-width="2" fill="none"/><path d="M440 401l1-.03v1.06h-2v-1.1zM441 599.06l-1-.06-1 .03v-1.06h2z" fill="#c92d39"/><path d="M467.15 392l261.32 180.35" stroke="#c92d39" stroke-width="2" fill="none"/><path d="M467.74 391.18l-1.13 1.65-1.1-.77.77-.57.8-.78zM729.93 572.14l-1.28 1.55-.77-.54 1.13-1.65z" fill="#c92d39"/><path d="M482 639.83l236-39.66" stroke="#000" stroke-width="2" fill="none"/><path d="M482.18 640.82l-1.24.2.06-1-.03-1.03.88-.16zM719 600l.03 1-.88.16-.33-1.98 1.24-.2z"/><path d="M479.7 653.42l638.3 26.54" stroke="#000" stroke-width="2" fill="none"/><path d="M479.76 652.43l-.08 2-1.3-.06.63-1.97zM1119.06 679l-.06 1 .03 1-1.1-.04.1-2z"/><path d="M1123.4 659.57l-321.42-59.4" stroke="#000" stroke-width="2" fill="none"/><path d="M1124.96 658.84l-.97 1.53-.15.3-.66-.12.36-1.97zM802.2 599.2l-.37 1.97-.9-.16.07-1-.04-1.02z"/><path d="M1160 482v156" stroke="#000" stroke-width="2" fill="none"/><path d="M1160 481l1-.03v1.06h-2v-1.1zM1161 639.06l-1-.06-1 .03v-1.06h2z"/><path d="M798.93 584.43l322.14-128.86" stroke="#000" stroke-width="2" fill="none"/><path d="M799.33 585.35l-.95.38-.75-1.86.96-.38zM1122.37 456.13l-.96.38-.73-1.85.95-.38z"/><path d="M881.97 360.24l240.96 60.1" stroke="#000" stroke-width="2" fill="none"/><path d="M882.24 359.28l-.5 1.94-.8-.2.06-1-.04-1.06zM1124.43 419.68l-.44.7-.53 1.12-.8-.2.47-1.94z"/><path d="M1192.38 413.27l165.84-132.65" stroke="#000" stroke-width="2" fill="none"/><path d="M1193.03 414.03l-.83.67-.7-.97-.57-.58.85-.68zM1359 280l.04 1.25-.22.17-1.25-1.56 1.5-1.2z"/><path d="M826.74 399.78l-53.48 160.44" stroke="#000" stroke-width="2" fill="none"/><path d="M828 399.14l-.32.98-1.9-.63.32-.97zM774.22 560.5l-.32.97-1.9-.6.32-1z"/><defs><path d="M137 0h-34L2-248h35l83 218 83-218h36" id="v"/><path d="M24-231v-30h32v30H24zM24 0v-190h32V0H24" id="w"/><path d="M135-143c-3-34-86-38-87 0 15 53 115 12 119 90S17 21 10-45l28-5c4 36 97 45 98 0-10-56-113-15-118-90-4-57 82-63 122-42 12 7 21 19 24 35" id="x"/><path d="M59-47c-2 24 18 29 38 22v24C64 9 27 4 27-40v-127H5v-23h24l9-43h21v43h35v23H59v120" id="y"/><path d="M100-194c63 0 86 42 84 106H49c0 40 14 67 53 68 26 1 43-12 49-29l28 8c-11 28-37 45-77 45C44 4 14-33 15-96c1-61 26-98 85-98zm52 81c6-60-76-77-97-28-3 7-6 17-6 28h103" id="z"/><path d="M85-194c31 0 48 13 60 33l-1-100h32l1 261h-30c-2-10 0-23-3-31C134-8 116 4 85 4 32 4 16-35 15-94c0-66 23-100 70-100zm9 24c-40 0-46 34-46 75 0 40 6 74 45 74 42 0 51-32 51-76 0-42-9-74-50-73" id="A"/><g id="a"><use transform="matrix(0.08641975308641976,0,0,0.08641975308641976,0,0)" xlink:href="#v"/><use transform="matrix(0.08641975308641976,0,0,0.08641975308641976,20.135802469135804,0)" xlink:href="#w"/><use transform="matrix(0.08641975308641976,0,0,0.08641975308641976,26.962962962962965,0)" xlink:href="#x"/><use transform="matrix(0.08641975308641976,0,0,0.08641975308641976,42.51851851851852,0)" xlink:href="#w"/><use transform="matrix(0.08641975308641976,0,0,0.08641975308641976,49.345679012345684,0)" xlink:href="#y"/><use transform="matrix(0.08641975308641976,0,0,0.08641975308641976,57.98765432098766,0)" xlink:href="#z"/><use transform="matrix(0.08641975308641976,0,0,0.08641975308641976,75.27160493827161,0)" xlink:href="#A"/></g><path d="M18-150v-26h174v26H18zm0 90v-26h174v26H18" id="B"/><use transform="matrix(0.08641975308641976,0,0,0.08641975308641976,0,0)" xlink:href="#B" id="b"/><path d="M26 75v-336h71v23H56V52h41v23H26" id="C"/><path d="M205 0l-28-72H64L36 0H1l101-248h38L239 0h-34zm-38-99l-47-123c-12 45-31 82-46 123h93" id="D"/><path d="M68-38c1 34 0 65-14 84H32c9-13 17-26 17-46H33v-38h35" id="E"/><g id="c"><use transform="matrix(0.08641975308641976,0,0,0.08641975308641976,0,0)" xlink:href="#C"/><use transform="matrix(0.08641975308641976,0,0,0.08641975308641976,8.641975308641976,0)" xlink:href="#D"/><use transform="matrix(0.08641975308641976,0,0,0.08641975308641976,29.382716049382726,0)" xlink:href="#E"/></g><path d="M160-131c35 5 61 23 61 61C221 17 115-2 30 0v-248c76 3 177-17 177 60 0 33-19 50-47 57zm-97-11c50-1 110 9 110-42 0-47-63-36-110-37v79zm0 115c55-2 124 14 124-45 0-56-70-42-124-44v89" id="F"/><g id="d"><use transform="matrix(0.08641975308641976,0,0,0.08641975308641976,0,0)" xlink:href="#F"/><use transform="matrix(0.08641975308641976,0,0,0.08641975308641976,20.740740740740744,0)" xlink:href="#E"/></g><path d="M212-179c-10-28-35-45-73-45-59 0-87 40-87 99 0 60 29 101 89 101 43 0 62-24 78-52l27 14C228-24 195 4 139 4 59 4 22-46 18-125c-6-104 99-153 187-111 19 9 31 26 39 46" id="G"/><path d="M3 75V52h41v-290H3v-23h71V75H3" id="H"/><g id="e"><use transform="matrix(0.08641975308641976,0,0,0.08641975308641976,0,0)" xlink:href="#G"/><use transform="matrix(0.08641975308641976,0,0,0.08641975308641976,22.38271604938272,0)" xlink:href="#H"/></g><path d="M101-251c82-7 93 87 43 132L82-64C71-53 59-42 53-27h129V0H18c2-99 128-94 128-182 0-28-16-43-45-43s-46 15-49 41l-32-3c6-41 34-60 81-64" id="I"/><use transform="matrix(0.07407407407407408,0,0,0.07407407407407408,0,0)" xlink:href="#I" id="f"/><path d="M155-56V0h-30v-56H8v-25l114-167h33v167h35v25h-35zm-30-156c-27 46-58 90-88 131h88v-131" id="J"/><use transform="matrix(0.07407407407407408,0,0,0.07407407407407408,0,0)" xlink:href="#J" id="g"/><path d="M126-127c33 6 58 20 58 59 0 88-139 92-164 29-3-8-5-16-6-25l32-3c6 27 21 44 54 44 32 0 52-15 52-46 0-38-36-46-79-43v-28c39 1 72-4 72-42 0-27-17-43-46-43-28 0-47 15-49 41l-32-3c6-42 35-63 81-64 48-1 79 21 79 65 0 36-21 52-52 59" id="K"/><use transform="matrix(0.07407407407407408,0,0,0.07407407407407408,0,0)" xlink:href="#K" id="h"/><path d="M27 0v-27h64v-190l-56 39v-29l58-41h29v221h61V0H27" id="L"/><use transform="matrix(0.07407407407407408,0,0,0.07407407407407408,0,0)" xlink:href="#L" id="i"/><path d="M134-131c28 9 52 24 51 62-1 50-34 73-85 73S17-19 16-69c0-36 21-54 49-61-75-25-45-126 34-121 46 3 78 18 79 63 0 33-17 51-44 57zm-34-11c31 1 46-15 46-44 0-28-17-43-47-42-29 0-46 13-45 42 1 28 16 44 46 44zm1 122c35 0 51-18 51-52 0-30-18-46-53-46-33 0-51 17-51 47 0 34 19 51 53 51" id="M"/><use transform="matrix(0.07407407407407408,0,0,0.07407407407407408,0,0)" xlink:href="#M" id="j"/><path d="M110-160c48 1 74 30 74 79 0 53-28 85-80 85-65 0-83-55-86-122-5-90 50-162 133-122 14 7 22 21 27 39l-31 6c-5-40-67-38-82-6-9 19-15 44-15 74 11-20 30-34 60-33zm-7 138c34 0 49-23 49-58s-16-56-50-56c-29 0-50 16-49 49 1 36 15 65 50 65" id="N"/><use transform="matrix(0.07407407407407408,0,0,0.07407407407407408,0,0)" xlink:href="#N" id="k"/><path d="M99-251c64 0 84 50 84 122C183-37 130 33 47-8c-14-7-20-23-25-40l30-5c6 39 69 39 84 7 9-19 16-44 16-74-10 22-31 35-62 35-49 0-73-33-73-83 0-54 28-83 82-83zm-1 141c31-1 51-18 51-49 0-36-14-67-51-67-34 0-49 23-49 58 0 34 15 58 49 58" id="O"/><use transform="matrix(0.07407407407407408,0,0,0.07407407407407408,0,0)" xlink:href="#O" id="l"/><path d="M54-142c48-35 137-8 131 61C196 18 31 33 14-55l32-4c7 23 22 37 52 37 35-1 51-22 54-58 4-55-73-65-99-34H22l8-134h141v27H59" id="P"/><use transform="matrix(0.07407407407407408,0,0,0.07407407407407408,0,0)" xlink:href="#P" id="m"/><path d="M64 0c3-98 48-159 88-221H18v-27h164v26C143-157 98-101 97 0H64" id="Q"/><use transform="matrix(0.07407407407407408,0,0,0.07407407407407408,0,0)" xlink:href="#Q" id="n"/><use transform="matrix(0.14814814814814817,0,0,0.14814814814814817,0,0)" xlink:href="#D" id="o"/><use transform="matrix(0.14814814814814817,0,0,0.14814814814814817,0,0)" xlink:href="#F" id="p"/><path d="M30-248c118-7 216 8 213 122C240-48 200 0 122 0H30v-248zM63-27c89 8 146-16 146-99s-60-101-146-95v194" id="R"/><use transform="matrix(0.14814814814814817,0,0,0.14814814814814817,0,0)" xlink:href="#R" id="q"/><path d="M30 0v-248h187v28H63v79h144v27H63v87h162V0H30" id="S"/><use transform="matrix(0.14814814814814817,0,0,0.14814814814814817,0,0)" xlink:href="#S" id="r"/><use transform="matrix(0.14814814814814817,0,0,0.14814814814814817,0,0)" xlink:href="#G" id="s"/><path d="M63-220v92h138v28H63V0H30v-248h175v28H63" id="T"/><use transform="matrix(0.14814814814814817,0,0,0.14814814814814817,0,0)" xlink:href="#T" id="t"/><path d="M143 4C61 4 22-44 18-125c-5-107 100-154 193-111 17 8 29 25 37 43l-32 9c-13-25-37-40-76-40-61 0-88 39-88 99 0 61 29 100 91 101 35 0 62-11 79-27v-45h-74v-28h105v86C228-13 192 4 143 4" id="U"/><use transform="matrix(0.14814814814814817,0,0,0.14814814814814817,0,0)" xlink:href="#U" id="u"/></defs></g></svg>